#!OML:ASF F:\VICON\USERDATA\INSTALL\rory3\rory3.ASF
:FULLY-SPECIFIED
:DEGREES
600
root 1.06113 16.7326 16.5095 22.7244 -17.6034 -2.54251
lowerback 4.3248 -7.05624 -3.52381
upperback -10.5607 -10.6116 -3.20574
thorax -14.0202 -4.98056 0.139417
lowerneck -12.4864 -5.5341 -7.83363
upperneck 35.729 -12.6345 14.9588
head 16.5835 -4.87431 5.62319
rclavicle 2.78299e-015 1.90833e-014
rhumerus -156.636 -64.2539 117.705
rradius 14.1688
rwrist 23.9103
rhand -4.35535 19.6755
rfingers 7.12502
rthumb 21.4127 -9.16125
lclavicle 2.78299e-015 1.90833e-014
lhumerus 50.7178 61.2743 111.55
lradius 24.8969
lwrist 25.7934
lhand 5.2576 7.97666
lfingers 7.12502
lthumb 30.6156 35.4507
rfemur -66.5733 3.70303 27.6548
rtibia 49.4856
rfoot 17.2358 -1.2385
rtoes -1.36868
lfemur -40.3517 -2.64664 -26.0106
ltibia 41.1149
lfoot -28.2855 24.0879
ltoes -13.208
601
root 1.08312 16.6998 16.4256 22.8797 -18.0302 -3.08086
lowerback 4.44685 -7.1313 -3.22544
upperback -10.6501 -10.6501 -2.80625
thorax -14.1678 -4.99544 0.442794
lowerneck -11.3931 -6.4847 -8.40495
upperneck 35.86 -14.0303 14.7241
head 16.6696 -5.64463 5.36902
rclavicle -1.17382e-013 -4.13472e-014
rhumerus -156.011 -66.5028 114.613
rradius 14.6707
rwrist 13.8845
rhand -8.3455 22.5699
rfingers 7.12502
rthumb 17.5764 -6.65556
lclavicle -1.17382e-013 -4.13472e-014
lhumerus 44.7531 60.481 108.032
lradius 27.8725
lwrist 32.3271
lhand -0.830173 11.3712
lfingers 7.12502
lthumb 24.795 39.7838
rfemur -66.3955 3.46251 28.1358
rtibia 51.1026
rfoot 13.5483 -0.325062
rtoes -6.13818
lfemur -41.2853 -2.50674 -25.5068
ltibia 42.1967
lfoot -28.7048 24.3143
ltoes -11.9145
602
root 1.10285 16.6606 16.3427 23.0585 -18.5269 -3.47027
lowerback 4.08209 -7.24707 -3.08775
upperback -10.3857 -10.7001 -2.49033
thorax -13.5693 -5.03526 0.642791
lowerneck -10.7094 -7.45376 -8.89632
upperneck 35.8343 -15.531 14.7104
head 16.8302 -6.40149 5.1599
rclavicle 5.18828e-014 6.36111e-014
rhumerus -161.241 -65.6842 116.835
rradius 16.0494
rwrist 7.54536
rhand -11.8885 25.7503
rfingers 7.12502
rthumb 14.1645 -3.74686
lclavicle 5.18828e-014 6.36111e-014
lhumerus 39.0378 58.8075 104.662
lradius 31.0609
lwrist 38.248
lhand -7.2533 14.8566
lfingers 7.12502
lthumb 18.6272 43.9847
rfemur -66.2935 3.43883 28.2466
rtibia 52.8851
rfoot 9.56818 -0.67738
rtoes -11.1464
lfemur -42.2831 -2.34495 -25.1427
ltibia 43.2464
lfoot -29.2955 24.3392
ltoes -10.2336
603
root 1.1227 16.6177 16.2683 23.1048 -19.3559 -3.35843
lowerback 3.86476 -7.16105 -3.37364
upperback -10.297 -10.5766 -2.39534
thorax -13.2529 -4.95396 0.834852
lowerneck -9.75879 -8.5576 -9.72506
upperneck 35.7596 -17.3337 15.0328
head 17.0694 -7.31296 5.1053
rclavicle 5.80451e-014 4.45278e-014
rhumerus -136.319 -78.0621 87.6459
rradius 17.9859
rwrist -13.0511
rhand -17.9212 27.2544
rfingers 7.12502
rthumb 8.34635 -2.56066
lclavicle 5.80451e-014 4.45278e-014
lhumerus 34.1809 57.1655 102.641
lradius 33.3234
lwrist 41.1704
lhand -12.2369 17.8698
lfingers 7.12502
lthumb 13.8287 47.3901
rfemur -66.2706 3.41358 27.7563
rtibia 54.8297
rfoot 5.92843 -1.6873
rtoes -17.8352
lfemur -43.1155 -2.22367 -25.3836
ltibia 44.1696
lfoot -30.2396 24.3248
ltoes -8.00316
604
root 1.14595 16.5777 16.2052 23.0832 -20.2227 -3.43099
lowerback 3.64522 -7.05372 -3.35226
upperback -10.1622 -10.3858 -2.27999
thorax -12.9352 -4.87053 0.877114
lowerneck -9.01542 -9.64933 -10.78
upperneck 35.8148 -19.1579 15.4346
head 17.5268 -8.24097 5.10883
rclavicle 2.5842e-014 6.36111e-015
rhumerus -133.726 -79.9891 82.0057
rradius 19.6615
rwrist -18.935
rhand -22.5101 29.1331
rfingers 7.12502
rthumb 3.91617 -0.810707
lclavicle 2.5842e-014 6.36111e-015
lhumerus 31.4142 56.3921 102.699
lradius 34.2451
lwrist 40.8352
lhand -15.9296 19.7948
lfingers 7.12502
lthumb 10.2681 49.5242
rfemur -65.9819 3.27997 27.4945
rtibia 56.7888
rfoot 2.51416 -4.18619
rtoes -19.0962
lfemur -43.6751 -2.07261 -25.4662
ltibia 44.9574
lfoot -31.1654 24.2937
ltoes -5.46215
605
root 1.17078 16.5598 16.1424 23.1135 -20.8768 -3.78846
lowerback 4.19643 -7.43016 -3.59448
upperback -10.7004 -10.89 -1.23434
thorax -13.6323 -4.98506 2.30981
lowerneck -8.23422 -10.0581 -10.8278
upperneck 36.4444 -19.3562 13.7385
head 17.408 -8.55041 4.3458
rclavicle -1.15891e-013 -3.97569e-014
rhumerus -137.557 -81.4536 83.8659
rradius 19.3228
rwrist -16.4428
rhand -25.6798 30.1264
rfingers 7.12502
rthumb 0.855002 0.148325
lclavicle -1.15891e-013 -3.97569e-014
lhumerus 27.8869 58.0454 102.484
lradius 34.7079
lwrist 39.37
lhand -15.096 21.6284
lfingers 7.12502
lthumb 11.0721 51.3163
rfemur -65.3679 2.94963 27.5592
rtibia 58.6264
rfoot -0.731783 -6.99907
rtoes -16.7858
lfemur -44.1858 -2.04919 -25.1479
ltibia 45.5986
lfoot -31.2239 24.969
ltoes -5.25586
606
root 1.19514 16.5527 16.0764 23.2 -21.5973 -4.10244
lowerback 4.06989 -7.5431 -3.51439
upperback -10.7904 -10.9648 -0.641215
thorax -13.5382 -4.99606 2.8962
lowerneck -7.18997 -10.6785 -11.2246
upperneck 36.3482 -20.0836 13.0512
head 17.1671 -9.05032 3.98637
rclavicle -4.07509e-015 2.54444e-014
rhumerus -147.407 -81.4348 91.7397
rradius 18.069
rwrist -11.2229
rhand -28.6938 29.625
rfingers 7.12502
rthumb -2.05601 -0.344881
lclavicle -4.07509e-015 2.54444e-014
lhumerus 25.0879 58.0185 102.837
lradius 35.4847
lwrist 39.898
lhand -17.5515 25.6854
lfingers 7.12502
lthumb 8.70318 55.486
rfemur -64.713 2.51728 27.6123
rtibia 60.2596
rfoot -3.63836 -9.71482
rtoes -9.71082
lfemur -44.7216 -2.06515 -24.8269
ltibia 46.1205
lfoot -31.3647 25.6367
ltoes -5.44725
607
root 1.21677 16.5402 16.0128 23.3332 -22.6066 -4.27525
lowerback 3.49399 -7.36892 -3.37427
upperback -10.6072 -10.6476 -0.519526
thorax -12.9737 -4.88371 2.80042
lowerneck -6.16746 -11.4191 -11.6726
upperneck 36.0043 -21.3166 13.2233
head 17.078 -9.68503 3.9087
rclavicle 4.19436e-014 -7.95139e-015
rhumerus -166.037 -75.9174 108.547
rradius 16.1062
rwrist -0.935533
rhand -30.0434 27.6588
rfingers 7.12502
rthumb -3.35935 -2.29446
lclavicle 4.19436e-014 -7.95139e-015
lhumerus 23.8691 57.7156 104.45
lradius 35.2135
lwrist 38.5086
lhand -17.6523 28.2309
lfingers 7.12502
lthumb 8.60588 58.0355
rfemur -64.2186 2.02366 27.6421
rtibia 61.5836
rfoot -4.93767 -12.4147
rtoes -12.05
lfemur -45.2283 -1.93176 -24.7133
ltibia 46.4966
lfoot -31.9709 25.9425
ltoes -3.92632
608
root 1.23884 16.5355 15.9599 23.4455 -23.4829 -4.62095
lowerback 2.71653 -7.02175 -2.84446
upperback -10.1934 -10.0487 -0.54478
thorax -12.1286 -4.69084 2.26761
lowerneck -5.03935 -12.3642 -12.3373
upperneck 35.3212 -22.966 13.8749
head 17.0169 -10.4861 3.97725
rclavicle -2.0117e-013 -4.29375e-014
rhumerus -174.215 -67.003 115.038
rradius 14.3926
rwrist 10.0705
rhand -30.2204 26.2141
rfingers 7.12502
rthumb -3.53033 -3.73642
lclavicle -2.0117e-013 -4.29375e-014
lhumerus 23.0714 56.7611 106.497
lradius 34.3693
lwrist 36.7885
lhand -17.1729 29.1128
lfingers 7.12502
lthumb 9.06855 58.8979
rfemur -63.3901 1.30694 27.8662
rtibia 62.6656
rfoot -5.71736 -15.1456
rtoes -14.3337
lfemur -45.5453 -1.72297 -24.4414
ltibia 46.759
lfoot -32.4129 26.2284
ltoes -2.33092
609
root 1.26113 16.5402 15.9082 23.4585 -24.4234 -4.78176
lowerback 1.86653 -6.57486 -2.3948
upperback -9.63674 -9.34577 -0.805561
thorax -11.1106 -4.44684 1.51133
lowerneck -4.17053 -13.4075 -12.3534
upperneck 34.5421 -24.7625 14.3909
head 16.8895 -11.2691 3.8248
rclavicle 1.54555e-014 -1.27222e-014
rhumerus -176.584 -61.3674 115.294
rradius 12.8708
rwrist 15.7125
rhand -30.8919 26.2629
rfingers 7.12502
rthumb -4.17875 -3.67588
lclavicle 1.54555e-014 -1.27222e-014
lhumerus 22.3836 55.1615 108.406
lradius 33.4235
lwrist 36.0054
lhand -17.1753 29.7399
lfingers 7.12502
lthumb 9.06615 59.5251
rfemur -62.4041 0.538621 27.7518
rtibia 63.5832
rfoot -8.25196 -17.9863
rtoes -6.6781
lfemur -45.6994 -1.61112 -24.2801
ltibia 46.9131
lfoot -32.8438 26.3289
ltoes -0.357827
610
root 1.28045 16.5371 15.8513 23.5887 -25.5908 -5.00284
lowerback 1.81085 -6.51009 -2.53092
upperback -9.80224 -9.23207 -0.323373
thorax -11.1599 -4.35332 2.08255
lowerneck -3.47574 -13.8414 -12.7899
upperneck 34.721 -25.39 13.9673
head 16.9392 -11.6741 3.61431
rclavicle -1.30651e-013 -2.22639e-014
rhumerus -178.874 -56.5628 115.078
rradius 12.2698
rwrist 21.4937
rhand -31.499 26.7894
rfingers 7.12502
rthumb -4.76502 -3.13697
lclavicle -1.30651e-013 -2.22639e-014
lhumerus 20.358 55.054 109.163
lradius 32.97
lwrist 36.559
lhand -17.666 30.475
lfingers 7.12502
lthumb 8.59271 60.2801
rfemur -61.4665 -0.0652316 27.6129
rtibia 64.2863
rfoot -12.5087 -20.4056
rtoes 9.45382
lfemur -45.8942 -1.56529 -23.9592
ltibia 47.0173
lfoot -33.8182 25.9554
ltoes 2.93518
611
root 1.30042 16.5431 15.7991 23.9583 -26.7825 -5.59313
lowerback -0.322587 -6.12921 -1.89352
upperback -8.41343 -8.50516 -0.327754
thorax -8.44341 -4.13471 1.28595
lowerneck -4.19178 -14.7301 -12.991
upperneck 34.0862 -26.8728 14.7324
head 17.3116 -12.1836 3.51409
rclavicle -5.36222e-014 -5.08889e-014
rhumerus -182.806 -56.4046 115.426
rradius 12.0438
rwrist 20.1372
rhand -32.4281 26.7377
rfingers 7.12502
rthumb -5.66208 -3.16664
lclavicle -5.36222e-014 -5.08889e-014
lhumerus 21.9471 52.8069 112.374
lradius 32.2753
lwrist 37.5653
lhand -18.3303 31.3179
lfingers 7.12502
lthumb 7.95152 61.1483
rfemur -60.5364 -0.619307 27.7567
rtibia 64.7906
rfoot -16.8772 -22.3687
rtoes 24.3088
lfemur -46.1035 -1.14814 -23.4329
ltibia 47.0271
lfoot -34.7062 25.4086
ltoes 5.9926
612
root 1.31809 16.5694 15.7551 24.4986 -27.8292 -6.22823
lowerback 1.29102 -6.24127 -1.90819
upperback -10.1929 -8.71996 0.861969
thorax -11.2037 -4.10271 2.91364
lowerneck -2.09705 -14.7218 -14.1461
upperneck 35.2551 -26.7132 13.1674
head 17.2644 -12.551 3.25763
rclavicle -1.063e-013 9.54166e-015
rhumerus -178.655 -68.0678 109.316
rradius 12.014
rwrist 10.617
rhand -33.4239 26.5914
rfingers 7.12502
rthumb -6.62348 -3.285
lclavicle -1.063e-013 9.54166e-015
lhumerus 15.6171 53.3335 109.833
lradius 33.078
lwrist 40.6646
lhand -19.7607 33.0345
lfingers 7.12502
lthumb 6.57084 62.9126
rfemur -59.6736 -1.26151 27.8305
rtibia 65.032
rfoot -16.5153 -25.4417
rtoes 23.3416
lfemur -46.396 -0.206196 -23.1886
ltibia 46.9436
lfoot -34.5269 25.6595
ltoes 4.88397
